<svg width="310" height="107" viewBox="0 0 310 107" fill="none" xmlns="http://www.w3.org/2000/svg">
<path d="M232.947 10.518C232.868 11.7023 232.428 14.078 231.608 17.6488L231.183 19.5206H216.767L217.566 16.0362C217.486 14.6755 216.666 13.8116 215.082 13.4553H181.444L178.179 27.7852C177.326 31.5216 175.436 34.4984 172.495 36.6906C169.554 38.8863 166.066 39.9878 162.035 39.9878H141.762L136.64 62.4348H121.647L127.043 38.566L137.651 24.3944L154.184 24.3692L152.32 32.1263L172.798 19.0994L158.244 7.41155L156.779 13.5201H137.086L132.813 0.0719907H170.084L202.383 0.017999L214.117 0H219.013C228.807 0 233.454 3.4952 232.947 10.5108V10.518Z" fill="#79D8FE"/>
<path d="M99.1034 24.3981H132.749L122.677 37.8533H96.0401L90.4356 62.4385H76.0156L87.3291 12.811C88.8122 6.33893 92.2534 2.32899 97.6635 0.784772C99.3086 0.313226 101.9 0.072052 105.424 0.072052H128.472L132.752 13.5201H106.587C103.7 13.5201 101.839 14.5388 100.993 16.5582C100.882 16.7273 100.795 16.9937 100.712 17.3573L99.107 24.3981H99.1034Z" fill="white"/>
<path d="M230.172 24.373H206.738L204.622 33.66H213.646L210.781 46.2297C210.104 48.0655 208.355 48.987 205.54 48.987H193.999C192.419 48.6343 191.595 47.7704 191.516 46.4061L197.901 18.5849H183.485L177.47 44.8007C176.657 48.3679 176.214 50.7436 176.135 51.9279C175.624 58.9435 180.271 62.4351 190.065 62.4351H206.699C213.232 62.4351 218.315 59.973 221.932 55.0415C223.145 53.3857 224.207 50.5636 225.114 46.5861L229.452 27.5623H229.448L230.175 24.3766L230.172 24.373Z" fill="white"/>
<path d="M8.25665 77.0454H3.18146V78.7624H5.92105V79.9491H3.18146V82.4236H1.66648V75.9092H8.25665V77.0454ZM17.1811 78.6235C17.1811 79.4652 16.693 79.886 15.7167 79.886H11.6262V82.4236H10.1365V75.9092H15.7167C16.693 75.9092 17.1811 76.33 17.1811 77.1716V78.6235ZM15.7167 78.2448V77.5504C15.7167 77.3316 15.6535 77.1885 15.5273 77.1211C15.4347 77.0622 15.2706 77.0328 15.0349 77.0328H11.6262V78.7624H15.0349C15.2706 78.7624 15.4347 78.7329 15.5273 78.674C15.6535 78.6067 15.7167 78.4636 15.7167 78.2448ZM27.1063 80.8834C27.1063 81.4893 26.9885 81.8975 26.7528 82.108C26.5256 82.3184 26.1048 82.4236 25.4904 82.4236H20.9959C20.3815 82.4236 19.9565 82.3184 19.7208 82.108C19.4936 81.8975 19.3799 81.4893 19.3799 80.8834V77.4494C19.3799 76.8434 19.4936 76.4352 19.7208 76.2248C19.9565 76.0144 20.3815 75.9092 20.9959 75.9092H25.4904C26.1384 75.9092 26.5677 76.0228 26.7781 76.25C26.9969 76.4689 27.1063 76.8981 27.1063 77.5378L25.6292 77.8029V77.0706H20.8949V81.199H25.6292V79.7471H23.1548V78.6361H27.1063V80.8834ZM42.2711 80.8834C42.2711 81.4893 42.1533 81.8975 41.9176 82.108C41.682 82.3184 41.2569 82.4236 40.6425 82.4236H36.6152C35.9503 82.4236 35.5126 82.3058 35.3022 82.0701C35.0918 81.8344 34.9866 81.3799 34.9866 80.7066L36.3248 80.4289V81.199H40.9329V79.7092H36.8677C36.2533 79.7092 35.8283 79.604 35.5926 79.3936C35.3653 79.1832 35.2517 78.775 35.2517 78.169V77.4494C35.2517 76.8434 35.3653 76.4352 35.5926 76.2248C35.8283 76.0144 36.2533 75.9092 36.8677 75.9092H40.5668C41.1896 75.9092 41.6146 76.0186 41.8419 76.2374C42.0691 76.4478 42.1828 76.8602 42.1828 77.4746L40.8445 77.7903V77.0454H36.5773V78.4468H40.6425C41.2569 78.4468 41.682 78.552 41.9176 78.7624C42.1533 78.9728 42.2711 79.381 42.2711 79.987V80.8834ZM53.3001 80.8834C53.3001 81.4893 53.1823 81.8975 52.9466 82.108C52.7194 82.3184 52.2986 82.4236 51.6841 82.4236H46.8867C46.2723 82.4236 45.8473 82.3184 45.6116 82.108C45.3843 81.8975 45.2707 81.4893 45.2707 80.8834V77.4494C45.2707 76.8434 45.3843 76.4352 45.6116 76.2248C45.8473 76.0144 46.2723 75.9092 46.8867 75.9092H51.6841C52.2986 75.9092 52.7194 76.0144 52.9466 76.2248C53.1823 76.4352 53.3001 76.8434 53.3001 77.4494V80.8834ZM51.7851 81.199V77.0706H46.7857V81.199H51.7851ZM62.8941 82.4236H56.4933V75.9092H58.0083V81.199H62.8941V82.4236ZM72.2247 80.8834C72.2247 81.4893 72.1068 81.8975 71.8712 82.108C71.6439 82.3184 71.2231 82.4236 70.6087 82.4236H66.493C65.8786 82.4236 65.4535 82.3184 65.2179 82.108C64.9906 81.8975 64.877 81.4893 64.877 80.8834V75.9092H66.392V81.199H70.7097V75.9092H72.2247V80.8834ZM81.5886 77.0706H78.5838V82.4236H77.0689V77.0706H74.0768V75.9092H81.5886V77.0706ZM84.9594 82.4236H83.4444V75.9092H84.9594V82.4236ZM96.1802 80.8834C96.1802 81.4893 96.0624 81.8975 95.8267 82.108C95.5995 82.3184 95.1786 82.4236 94.5642 82.4236H89.7668C89.1524 82.4236 88.7273 82.3184 88.4917 82.108C88.2644 81.8975 88.1508 81.4893 88.1508 80.8834V77.4494C88.1508 76.8434 88.2644 76.4352 88.4917 76.2248C88.7273 76.0144 89.1524 75.9092 89.7668 75.9092H94.5642C95.1786 75.9092 95.5995 76.0144 95.8267 76.2248C96.0624 76.4352 96.1802 76.8434 96.1802 77.4494V80.8834ZM94.6652 81.199V77.0706H89.6658V81.199H94.6652ZM107.024 82.4236H105.989L101.204 78.3963C101.002 78.2279 100.821 78.0512 100.661 77.866C100.703 78.2868 100.724 78.6193 100.724 78.8634V82.4236H99.3608V75.9092H100.396L104.979 79.7471C105.307 80.0249 105.555 80.2605 105.724 80.4541C105.682 79.8481 105.661 79.4736 105.661 79.3305V75.9092H107.024V82.4236ZM123.51 82.4236H121.528L120.455 81.5146C119.984 81.9354 119.714 82.1669 119.647 82.209C119.42 82.352 119.087 82.4236 118.65 82.4236H116.327C115.595 82.4236 115.127 82.2721 114.925 81.9691C114.774 81.7418 114.698 81.2368 114.698 80.4541C114.698 80.1343 114.766 79.8902 114.9 79.7219C115.001 79.5872 115.203 79.4273 115.506 79.2421L116.832 78.4468C116.579 78.2363 116.419 78.0386 116.352 77.8534C116.302 77.7103 116.276 77.4578 116.276 77.0959C116.276 76.5993 116.44 76.2669 116.769 76.0985C116.996 75.9723 117.37 75.9092 117.892 75.9092H119.205C119.786 75.9092 120.186 75.9849 120.405 76.1364C120.682 76.3216 120.821 76.6835 120.821 77.2221V77.6135L119.647 77.8155V76.9444H117.514V77.4115L120.581 79.9617L122.096 78.6993L122.955 79.4441L121.452 80.694L123.51 82.4236ZM119.597 80.7697L117.64 79.1411L115.973 80.1764V81.2873H118.991L119.597 80.7697ZM137.498 80.8834C137.498 81.4893 137.38 81.8975 137.144 82.108C136.917 82.3184 136.496 82.4236 135.882 82.4236H131.993C131.379 82.4236 130.954 82.3184 130.718 82.108C130.491 81.8975 130.377 81.4893 130.377 80.8834V77.4494C130.377 76.8434 130.491 76.4352 130.718 76.2248C130.954 76.0144 131.379 75.9092 131.993 75.9092H135.882C136.656 75.9092 137.136 76.0901 137.321 76.452C137.439 76.6624 137.498 77.2011 137.498 78.068L135.983 78.3079V77.0706H131.892V81.199H135.983V79.7976L137.498 80.1132V80.8834ZM148.517 80.8834C148.517 81.4893 148.399 81.8975 148.163 82.108C147.936 82.3184 147.515 82.4236 146.901 82.4236H142.103C141.489 82.4236 141.064 82.3184 140.828 82.108C140.601 81.8975 140.487 81.4893 140.487 80.8834V77.4494C140.487 76.8434 140.601 76.4352 140.828 76.2248C141.064 76.0144 141.489 75.9092 142.103 75.9092H146.901C147.515 75.9092 147.936 76.0144 148.163 76.2248C148.399 76.4352 148.517 76.8434 148.517 77.4494V80.8834ZM147.002 81.199V77.0706H142.002V81.199H147.002ZM159.36 82.4236H158.325L153.54 78.3963C153.338 78.2279 153.157 78.0512 152.998 77.866C153.04 78.2868 153.061 78.6193 153.061 78.8634V82.4236H151.697V75.9092H152.732L157.315 79.7471C157.643 80.0249 157.892 80.2605 158.06 80.4541C158.018 79.8481 157.997 79.4736 157.997 79.3305V75.9092H159.36V82.4236ZM169.752 80.8834C169.752 81.4893 169.635 81.8975 169.399 82.108C169.163 82.3184 168.738 82.4236 168.124 82.4236H164.097C163.432 82.4236 162.994 82.3058 162.784 82.0701C162.573 81.8344 162.468 81.3799 162.468 80.7066L163.806 80.4289V81.199H168.414V79.7092H164.349C163.735 79.7092 163.31 79.604 163.074 79.3936C162.847 79.1832 162.733 78.775 162.733 78.169V77.4494C162.733 76.8434 162.847 76.4352 163.074 76.2248C163.31 76.0144 163.735 75.9092 164.349 75.9092H168.048C168.671 75.9092 169.096 76.0186 169.323 76.2374C169.55 76.4478 169.664 76.8602 169.664 77.4746L168.326 77.7903V77.0454H164.059V78.4468H168.124C168.738 78.4468 169.163 78.552 169.399 78.7624C169.635 78.9728 169.752 79.381 169.752 79.987V80.8834ZM180.239 80.8834C180.239 81.4893 180.121 81.8975 179.885 82.108C179.658 82.3184 179.237 82.4236 178.623 82.4236H174.507C173.893 82.4236 173.467 82.3184 173.232 82.108C173.005 81.8975 172.891 81.4893 172.891 80.8834V75.9092H174.406V81.199H178.724V75.9092H180.239V80.8834ZM189.969 82.4236H183.568V75.9092H185.083V81.199H189.969V82.4236ZM196.704 77.0706H193.699V82.4236H192.184V77.0706H189.192V75.9092H196.704V77.0706ZM205.323 82.4236H203.618L202.835 80.997H198.707L197.95 82.4236H196.435L200.121 75.9092H201.586L205.323 82.4236ZM202.204 79.8229L200.803 77.1716L199.351 79.8229H202.204ZM215.075 82.4236H214.04L209.255 78.3963C209.053 78.2279 208.872 78.0512 208.712 77.866C208.754 78.2868 208.775 78.6193 208.775 78.8634V82.4236H207.412V75.9092H208.447L213.03 79.7471C213.358 80.0249 213.606 80.2605 213.775 80.4541C213.733 79.8481 213.712 79.4736 213.712 79.3305V75.9092H215.075V82.4236ZM225.379 80.8834C225.379 81.4893 225.261 81.8975 225.025 82.108C224.798 82.3184 224.377 82.4236 223.763 82.4236H219.874C219.26 82.4236 218.835 82.3184 218.599 82.108C218.372 81.8975 218.258 81.4893 218.258 80.8834V77.4494C218.258 76.8434 218.372 76.4352 218.599 76.2248C218.835 76.0144 219.26 75.9092 219.874 75.9092H223.763C224.537 75.9092 225.017 76.0901 225.202 76.452C225.32 76.6624 225.379 77.2011 225.379 78.068L223.864 78.3079V77.0706H219.773V81.199H223.864V79.7976L225.379 80.1132V80.8834ZM234.989 75.9092L231.618 79.4694V82.4236H230.091V79.5072L226.707 75.9092H228.727L230.962 78.4089L233.209 75.9092H234.989ZM248.707 80.8834C248.707 81.4893 248.589 81.8975 248.354 82.108C248.118 82.3184 247.693 82.4236 247.078 82.4236H243.051C242.386 82.4236 241.949 82.3058 241.738 82.0701C241.528 81.8344 241.423 81.3799 241.423 80.7066L242.761 80.4289V81.199H247.369V79.7092H243.304C242.689 79.7092 242.264 79.604 242.029 79.3936C241.801 79.1832 241.688 78.775 241.688 78.169V77.4494C241.688 76.8434 241.801 76.4352 242.029 76.2248C242.264 76.0144 242.689 75.9092 243.304 75.9092H247.003C247.626 75.9092 248.051 76.0186 248.278 76.2374C248.505 76.4478 248.619 76.8602 248.619 77.4746L247.28 77.7903V77.0454H243.013V78.4468H247.078C247.693 78.4468 248.118 78.552 248.354 78.7624C248.589 78.9728 248.707 79.381 248.707 79.987V80.8834ZM259.761 79.1285C259.761 80.391 259.282 81.321 258.322 81.9186C257.775 82.2553 256.883 82.4236 255.646 82.4236H251.846V75.9092H256.037C257.165 75.9092 258.049 76.1617 258.688 76.6667C259.404 77.2221 259.761 78.0428 259.761 79.1285ZM258.196 79.1032C258.196 77.7482 257.48 77.0706 256.05 77.0706H253.361V81.199H255.317C256.243 81.199 256.917 81.0811 257.337 80.8455C257.91 80.5256 258.196 79.9449 258.196 79.1032ZM270.185 82.4236H269.15L264.365 78.3963C264.163 78.2279 263.982 78.0512 263.822 77.866C263.865 78.2868 263.886 78.6193 263.886 78.8634V82.4236H262.522V75.9092H263.557L268.14 79.7471C268.468 80.0249 268.717 80.2605 268.885 80.4541C268.843 79.8481 268.822 79.4736 268.822 79.3305V75.9092H270.185V82.4236ZM285.485 81.1485C285.485 81.9985 284.845 82.4236 283.566 82.4236H278.39V75.9092H283.97C284.946 75.9092 285.434 76.33 285.434 77.1716V77.967C285.434 78.6067 285.06 78.9728 284.311 79.0654C285.094 79.1664 285.485 79.583 285.485 80.3152V81.1485ZM284.033 78.0554V77.4368C284.033 77.1254 283.802 76.9697 283.339 76.9697H279.88V78.5225H283.339C283.802 78.5225 284.033 78.3668 284.033 78.0554ZM284.071 80.6687V80.1764C284.071 79.9323 284.012 79.7766 283.894 79.7092C283.785 79.6335 283.6 79.5956 283.339 79.5956H279.88V81.2495H283.339C283.6 81.2495 283.785 81.2158 283.894 81.1485C284.012 81.0727 284.071 80.9128 284.071 80.6687ZM296.19 82.4236H294.663V79.6209H289.928V82.4236H288.413V75.9092H289.928V78.4341H294.663V75.9092H296.19V82.4236ZM307.437 79.1285C307.437 80.391 306.958 81.321 305.998 81.9186C305.451 82.2553 304.559 82.4236 303.322 82.4236H299.522V75.9092H303.713C304.841 75.9092 305.725 76.1617 306.364 76.6667C307.08 77.2221 307.437 78.0428 307.437 79.1285ZM305.872 79.1032C305.872 77.7482 305.157 77.0706 303.726 77.0706H301.037V81.199H302.993C303.919 81.199 304.593 81.0811 305.013 80.8455C305.586 80.5256 305.872 79.9449 305.872 79.1032Z" fill="white"/>
<path d="M91.5138 96.3512C91.5138 96.4024 91.5138 96.4485 91.5036 96.4895C91.4933 96.5304 91.4831 96.5612 91.4677 96.5868C91.4523 96.6124 91.4318 96.6329 91.4062 96.6482C91.3806 96.6636 91.355 96.6687 91.3294 96.6687H89.0041V103.686C89.0041 103.686 88.999 103.732 88.9836 103.752C88.9682 103.773 88.9529 103.788 88.9221 103.798C88.8965 103.809 88.8556 103.819 88.8095 103.829C88.7634 103.839 88.7019 103.839 88.6353 103.839C88.5687 103.839 88.5073 103.839 88.4612 103.829C88.4151 103.819 88.3741 103.809 88.3485 103.798C88.3229 103.788 88.3024 103.773 88.287 103.752C88.2768 103.732 88.2666 103.711 88.2666 103.686V96.6687H85.9412C85.9105 96.6687 85.8798 96.6636 85.8593 96.6482C85.8388 96.6329 85.8183 96.6124 85.8029 96.5868C85.7876 96.5612 85.7773 96.5253 85.7671 96.4895C85.7568 96.4536 85.7568 96.4024 85.7568 96.3512C85.7568 96.2948 85.7568 96.2436 85.7671 96.2026C85.7773 96.1617 85.7876 96.1258 85.8029 96.0951C85.8183 96.0695 85.8388 96.0439 85.8593 96.0336C85.8798 96.0234 85.9105 96.0131 85.9412 96.0131H91.3243C91.3499 96.0131 91.3806 96.0182 91.4011 96.0336C91.4267 96.049 91.4472 96.0695 91.4626 96.0951C91.4779 96.1258 91.4882 96.1565 91.4984 96.2026C91.5087 96.2436 91.5087 96.2948 91.5087 96.3512H91.5138Z" fill="white" stroke="white" stroke-width="0.512186" stroke-miterlimit="10"/>
<path d="M98.418 100.679C98.418 100.823 98.3822 100.925 98.3054 100.976C98.2285 101.033 98.1568 101.058 98.08 101.058H94.3615C94.3615 101.396 94.3923 101.698 94.4589 101.975C94.5254 102.247 94.633 102.482 94.7866 102.677C94.9403 102.871 95.1401 103.02 95.3808 103.127C95.6215 103.235 95.9288 103.286 96.2822 103.286C96.5332 103.286 96.7637 103.266 96.9634 103.22C97.1632 103.174 97.3373 103.127 97.4859 103.071C97.6344 103.015 97.7522 102.969 97.8495 102.923C97.9417 102.877 98.0134 102.856 98.0493 102.856C98.0749 102.856 98.0954 102.861 98.1159 102.877C98.1363 102.887 98.1517 102.907 98.1619 102.933C98.1722 102.958 98.1824 102.994 98.1876 103.03C98.1927 103.066 98.1978 103.122 98.1978 103.179C98.1978 103.204 98.1978 103.235 98.1927 103.261C98.1927 103.286 98.1824 103.312 98.1773 103.332C98.1722 103.353 98.162 103.373 98.1517 103.394C98.1415 103.414 98.1261 103.435 98.1056 103.455C98.0851 103.476 98.0237 103.512 97.9212 103.563C97.8188 103.614 97.6805 103.665 97.5115 103.711C97.3425 103.763 97.1478 103.809 96.9225 103.845C96.6971 103.886 96.4615 103.906 96.2003 103.906C95.7803 103.906 95.4064 103.845 95.0786 103.716C94.7508 103.588 94.4793 103.404 94.2591 103.158C94.0389 102.912 93.8698 102.605 93.7571 102.241C93.6445 101.878 93.583 101.453 93.583 100.971C93.583 100.49 93.6445 100.095 93.7623 99.7317C93.8801 99.368 94.0491 99.0556 94.2693 98.7995C94.4896 98.5434 94.7559 98.3488 95.0684 98.2156C95.3808 98.0824 95.724 98.0159 96.1081 98.0159C96.5178 98.0159 96.8661 98.0825 97.1581 98.2207C97.4449 98.359 97.6856 98.5434 97.87 98.7739C98.0544 99.0044 98.1927 99.2707 98.2798 99.578C98.3668 99.8853 98.4078 100.203 98.4078 100.541V100.684L98.418 100.679ZM97.6754 100.469C97.6856 99.8905 97.5525 99.4397 97.2759 99.1119C96.9993 98.7893 96.5947 98.6254 96.0671 98.6254C95.7957 98.6254 95.5549 98.6766 95.3449 98.779C95.1401 98.8815 94.9659 99.0146 94.8225 99.1837C94.6791 99.3527 94.5715 99.5473 94.4947 99.7727C94.4179 99.998 94.3718 100.229 94.3615 100.469H97.6754Z" fill="white" stroke="white" stroke-width="0.512186" stroke-miterlimit="10"/>
<path d="M106.341 102.882C106.341 102.928 106.341 102.974 106.336 103.01C106.336 103.046 106.326 103.081 106.315 103.107C106.305 103.138 106.295 103.158 106.285 103.184C106.269 103.204 106.239 103.245 106.187 103.296C106.136 103.348 106.049 103.414 105.926 103.496C105.803 103.578 105.665 103.645 105.511 103.706C105.358 103.768 105.194 103.814 105.02 103.855C104.84 103.891 104.661 103.911 104.472 103.911C104.093 103.911 103.76 103.85 103.468 103.722C103.176 103.594 102.935 103.409 102.735 103.163C102.541 102.917 102.387 102.615 102.285 102.252C102.182 101.893 102.131 101.478 102.131 101.007C102.131 100.479 102.192 100.024 102.32 99.6446C102.448 99.2656 102.623 98.9583 102.843 98.7175C103.063 98.4768 103.319 98.2975 103.616 98.1849C103.913 98.0722 104.226 98.0107 104.564 98.0107C104.743 98.0107 104.917 98.0261 105.081 98.0619C105.245 98.0978 105.399 98.1388 105.537 98.1951C105.675 98.2514 105.798 98.318 105.906 98.3897C106.013 98.4614 106.095 98.5229 106.141 98.5741C106.187 98.6253 106.223 98.6612 106.244 98.6868C106.264 98.7124 106.274 98.7431 106.285 98.7739C106.295 98.8046 106.3 98.8405 106.305 98.8814C106.305 98.9173 106.31 98.9634 106.31 99.0146C106.31 99.1324 106.295 99.2143 106.259 99.2604C106.223 99.3065 106.187 99.3322 106.146 99.3322C106.09 99.3322 106.018 99.2963 105.936 99.2246C105.854 99.1529 105.747 99.0709 105.619 98.989C105.491 98.9019 105.337 98.8251 105.153 98.7534C104.968 98.6817 104.753 98.6458 104.497 98.6458C103.975 98.6458 103.57 98.8456 103.288 99.2502C103.007 99.6548 102.863 100.234 102.863 100.992C102.863 101.371 102.899 101.709 102.976 101.996C103.053 102.282 103.16 102.523 103.304 102.713C103.447 102.902 103.621 103.045 103.826 103.143C104.031 103.235 104.262 103.286 104.518 103.286C104.758 103.286 104.973 103.25 105.158 103.174C105.342 103.097 105.501 103.015 105.639 102.923C105.778 102.83 105.89 102.743 105.977 102.672C106.07 102.595 106.136 102.559 106.177 102.559C106.203 102.559 106.223 102.564 106.239 102.579C106.259 102.595 106.269 102.615 106.285 102.646C106.295 102.677 106.305 102.713 106.31 102.754C106.315 102.795 106.321 102.846 106.321 102.902L106.341 102.882Z" fill="white" stroke="white" stroke-width="0.512186" stroke-miterlimit="10"/>
<path d="M114.67 103.686C114.67 103.686 114.665 103.732 114.65 103.752C114.634 103.773 114.619 103.788 114.593 103.798C114.568 103.809 114.532 103.819 114.486 103.829C114.44 103.839 114.383 103.839 114.317 103.839C114.245 103.839 114.184 103.839 114.137 103.829C114.091 103.819 114.056 103.809 114.03 103.798C114.004 103.788 113.984 103.773 113.974 103.752C113.963 103.732 113.953 103.711 113.953 103.686V100.454C113.953 100.116 113.928 99.8443 113.876 99.6292C113.825 99.4141 113.748 99.24 113.641 99.0863C113.538 98.9378 113.405 98.82 113.241 98.738C113.077 98.6561 112.888 98.6151 112.673 98.6151C112.396 98.6151 112.119 98.7124 111.843 98.9122C111.566 99.1068 111.274 99.3987 110.967 99.7778V103.686C110.967 103.686 110.962 103.732 110.947 103.752C110.936 103.773 110.916 103.788 110.89 103.798C110.865 103.809 110.829 103.819 110.783 103.829C110.737 103.839 110.675 103.839 110.603 103.839C110.537 103.839 110.475 103.839 110.434 103.829C110.388 103.819 110.352 103.809 110.322 103.798C110.296 103.788 110.276 103.773 110.265 103.752C110.255 103.732 110.25 103.711 110.25 103.686V95.5676C110.25 95.5676 110.25 95.5215 110.265 95.501C110.281 95.4805 110.296 95.4651 110.322 95.4498C110.347 95.4344 110.388 95.4242 110.434 95.4191C110.48 95.4139 110.537 95.4088 110.603 95.4088C110.675 95.4088 110.737 95.4088 110.783 95.4191C110.829 95.4242 110.865 95.4344 110.89 95.4498C110.916 95.4651 110.936 95.4805 110.947 95.501C110.957 95.5215 110.967 95.542 110.967 95.5676V98.9685C111.264 98.6407 111.561 98.3949 111.858 98.2412C112.155 98.0875 112.452 98.0107 112.749 98.0107C113.108 98.0107 113.41 98.0722 113.651 98.19C113.897 98.3129 114.091 98.4717 114.245 98.6765C114.399 98.8814 114.506 99.1222 114.573 99.3936C114.639 99.6651 114.67 99.998 114.67 100.382V103.681V103.686Z" fill="white" stroke="white" stroke-width="0.512186" stroke-miterlimit="10"/>
<path d="M129.375 101.627C129.375 101.857 129.349 102.067 129.293 102.267C129.236 102.462 129.159 102.641 129.062 102.805C128.965 102.969 128.842 103.107 128.693 103.23C128.55 103.353 128.386 103.46 128.202 103.547C128.017 103.634 127.823 103.701 127.608 103.742C127.392 103.788 127.147 103.809 126.865 103.809H124.847C124.775 103.809 124.698 103.783 124.621 103.727C124.545 103.67 124.509 103.573 124.509 103.43V96.3921C124.509 96.2487 124.545 96.1463 124.621 96.0951C124.698 96.0439 124.77 96.0131 124.847 96.0131H126.522C126.978 96.0131 127.341 96.0592 127.623 96.1514C127.905 96.2436 128.135 96.3768 128.319 96.5458C128.504 96.7148 128.637 96.9248 128.729 97.1655C128.821 97.4063 128.862 97.6777 128.862 97.9748C128.862 98.1592 128.842 98.3384 128.801 98.5075C128.76 98.6765 128.693 98.8301 128.611 98.9787C128.529 99.1272 128.422 99.2553 128.294 99.3679C128.166 99.4857 128.017 99.5831 127.843 99.665C128.053 99.706 128.248 99.7828 128.432 99.8904C128.617 99.9979 128.78 100.141 128.919 100.31C129.057 100.479 129.165 100.674 129.247 100.899C129.328 101.12 129.369 101.365 129.369 101.632L129.375 101.627ZM128.084 98.026C128.084 97.8211 128.053 97.6367 128.002 97.4677C127.946 97.2987 127.858 97.1604 127.736 97.0375C127.613 96.9197 127.454 96.8275 127.259 96.766C127.065 96.6995 126.798 96.6687 126.47 96.6687H125.251V99.4652H126.588C126.88 99.4652 127.116 99.4243 127.3 99.3475C127.479 99.2706 127.628 99.1631 127.746 99.0299C127.864 98.8967 127.951 98.7431 128.007 98.5689C128.063 98.3948 128.089 98.2104 128.089 98.026H128.084ZM128.591 101.688C128.591 101.432 128.55 101.202 128.468 101.007C128.386 100.812 128.263 100.643 128.104 100.515C127.946 100.382 127.751 100.28 127.515 100.213C127.28 100.146 126.993 100.111 126.65 100.111H125.246V103.153H126.947C127.198 103.153 127.413 103.122 127.608 103.061C127.797 102.999 127.966 102.907 128.115 102.784C128.263 102.661 128.376 102.508 128.463 102.328C128.55 102.144 128.591 101.934 128.591 101.693V101.688Z" fill="white" stroke="white" stroke-width="0.512186" stroke-miterlimit="10"/>
<path d="M137.893 100.679C137.893 100.823 137.857 100.925 137.78 100.976C137.703 101.028 137.631 101.058 137.555 101.058H133.836C133.836 101.396 133.872 101.698 133.933 101.975C134 102.247 134.108 102.482 134.261 102.677C134.415 102.871 134.615 103.02 134.855 103.127C135.096 103.235 135.403 103.286 135.757 103.286C136.008 103.286 136.238 103.266 136.438 103.22C136.638 103.174 136.812 103.127 136.96 103.071C137.109 103.015 137.227 102.969 137.319 102.923C137.411 102.877 137.483 102.856 137.519 102.856C137.544 102.856 137.565 102.861 137.585 102.877C137.606 102.887 137.621 102.907 137.631 102.933C137.642 102.958 137.652 102.994 137.657 103.03C137.662 103.066 137.667 103.122 137.667 103.179C137.667 103.204 137.667 103.235 137.662 103.261C137.657 103.286 137.652 103.312 137.647 103.332C137.642 103.353 137.631 103.373 137.621 103.394C137.611 103.414 137.59 103.435 137.575 103.455C137.56 103.476 137.493 103.512 137.391 103.563C137.288 103.614 137.15 103.665 136.981 103.711C136.812 103.763 136.617 103.809 136.392 103.845C136.172 103.886 135.931 103.906 135.675 103.906C135.255 103.906 134.881 103.845 134.553 103.716C134.231 103.588 133.954 103.404 133.734 103.158C133.513 102.912 133.344 102.605 133.232 102.241C133.119 101.878 133.058 101.453 133.058 100.971C133.058 100.49 133.119 100.095 133.237 99.7317C133.355 99.368 133.524 99.0556 133.744 98.7995C133.964 98.5434 134.231 98.3488 134.543 98.2156C134.855 98.0824 135.199 98.0159 135.583 98.0159C135.992 98.0159 136.341 98.0825 136.633 98.2207C136.92 98.359 137.16 98.5434 137.345 98.7739C137.529 99.0044 137.667 99.2707 137.754 99.578C137.841 99.8853 137.882 100.203 137.882 100.541V100.684L137.893 100.679ZM137.15 100.469C137.16 99.8905 137.027 99.4397 136.75 99.1119C136.474 98.7893 136.069 98.6254 135.542 98.6254C135.27 98.6254 135.03 98.6766 134.82 98.779C134.615 98.8815 134.441 99.0146 134.297 99.1837C134.154 99.3527 134.046 99.5473 133.969 99.7727C133.892 99.998 133.846 100.229 133.836 100.469H137.15Z" fill="white" stroke="white" stroke-width="0.512186" stroke-miterlimit="10"/>
<path d="M144.069 103.808L143.311 105.852C143.29 105.898 143.249 105.934 143.183 105.965C143.116 105.995 143.014 106.011 142.875 106.011C142.804 106.011 142.742 106.011 142.696 106.001C142.65 105.99 142.609 105.98 142.583 105.955C142.558 105.934 142.542 105.903 142.537 105.873C142.537 105.837 142.537 105.796 142.563 105.75L143.336 103.814C143.306 103.803 143.275 103.783 143.254 103.752C143.234 103.721 143.213 103.696 143.208 103.67L141.226 98.3537C141.206 98.2973 141.195 98.2512 141.195 98.2205C141.195 98.1898 141.206 98.159 141.226 98.1385C141.247 98.1181 141.282 98.1078 141.334 98.0976C141.385 98.0925 141.451 98.0873 141.533 98.0873C141.62 98.0873 141.692 98.0873 141.743 98.0976C141.795 98.1027 141.836 98.1129 141.866 98.1232C141.897 98.1334 141.917 98.1488 141.933 98.1693C141.948 98.1898 141.958 98.2154 141.974 98.241L143.679 102.999H143.705L145.38 98.241C145.4 98.1847 145.426 98.1488 145.462 98.1283C145.498 98.1078 145.539 98.0976 145.595 98.0925C145.651 98.0873 145.718 98.0822 145.8 98.0822C145.882 98.0822 145.938 98.0822 145.989 98.0925C146.041 98.1027 146.076 98.1129 146.102 98.1334C146.128 98.1539 146.138 98.1795 146.138 98.2154C146.138 98.2512 146.128 98.2922 146.107 98.3434L144.074 103.808H144.069Z" fill="white" stroke="white" stroke-width="0.512186" stroke-miterlimit="10"/>
<path d="M154.533 100.905C154.533 101.34 154.477 101.739 154.364 102.103C154.251 102.467 154.082 102.784 153.862 103.056C153.642 103.327 153.36 103.537 153.027 103.686C152.694 103.834 152.305 103.911 151.864 103.911C151.424 103.911 151.065 103.845 150.748 103.711C150.43 103.578 150.164 103.384 149.949 103.133C149.734 102.882 149.575 102.579 149.467 102.221C149.36 101.862 149.309 101.458 149.309 101.012C149.309 100.567 149.365 100.177 149.472 99.8136C149.585 99.45 149.749 99.1324 149.974 98.8661C150.2 98.5998 150.476 98.3898 150.809 98.2412C151.142 98.0927 151.531 98.0159 151.977 98.0159C152.423 98.0159 152.776 98.0824 153.094 98.2156C153.411 98.3488 153.678 98.5383 153.893 98.7893C154.108 99.0402 154.267 99.3424 154.374 99.7009C154.482 100.059 154.538 100.459 154.538 100.905H154.533ZM153.775 100.971C153.775 100.664 153.744 100.367 153.683 100.085C153.621 99.8034 153.524 99.5575 153.38 99.3424C153.242 99.1273 153.053 98.9583 152.812 98.8302C152.576 98.7022 152.279 98.6407 151.926 98.6407C151.603 98.6407 151.321 98.6971 151.081 98.8149C150.845 98.9327 150.651 99.0914 150.502 99.3014C150.353 99.5114 150.241 99.7522 150.169 100.034C150.097 100.316 150.062 100.618 150.062 100.946C150.062 101.273 150.092 101.555 150.154 101.842C150.215 102.124 150.312 102.375 150.456 102.585C150.594 102.8 150.784 102.964 151.024 103.092C151.26 103.215 151.557 103.276 151.91 103.276C152.233 103.276 152.515 103.22 152.756 103.102C152.996 102.984 153.186 102.825 153.334 102.62C153.483 102.416 153.596 102.175 153.667 101.893C153.739 101.611 153.775 101.309 153.775 100.976V100.971Z" fill="white" stroke="white" stroke-width="0.512186" stroke-miterlimit="10"/>
<path d="M163.03 103.686C163.03 103.686 163.025 103.732 163.009 103.752C162.999 103.773 162.979 103.788 162.953 103.798C162.927 103.809 162.891 103.819 162.845 103.829C162.799 103.839 162.743 103.839 162.671 103.839C162.6 103.839 162.538 103.839 162.492 103.829C162.446 103.819 162.41 103.809 162.384 103.798C162.359 103.788 162.338 103.773 162.328 103.752C162.318 103.732 162.308 103.711 162.308 103.686V100.454C162.308 100.116 162.282 99.8444 162.231 99.6293C162.18 99.4193 162.098 99.24 161.995 99.0863C161.893 98.9327 161.76 98.82 161.596 98.7381C161.432 98.6561 161.242 98.6151 161.027 98.6151C160.751 98.6151 160.474 98.7124 160.197 98.9122C159.921 99.1068 159.629 99.3988 159.327 99.7778V103.686C159.327 103.686 159.322 103.732 159.306 103.752C159.296 103.773 159.275 103.788 159.25 103.798C159.224 103.809 159.188 103.819 159.142 103.829C159.096 103.839 159.035 103.839 158.963 103.839C158.891 103.839 158.835 103.839 158.789 103.829C158.743 103.819 158.707 103.809 158.676 103.798C158.651 103.788 158.63 103.773 158.62 103.752C158.61 103.732 158.604 103.711 158.604 103.686V98.2361C158.604 98.2361 158.604 98.19 158.62 98.1695C158.635 98.149 158.651 98.1337 158.676 98.1183C158.702 98.1029 158.738 98.0927 158.784 98.0876C158.83 98.0824 158.881 98.0773 158.948 98.0773C159.014 98.0773 159.071 98.0773 159.117 98.0876C159.163 98.0978 159.194 98.1029 159.219 98.1183C159.245 98.1337 159.26 98.149 159.27 98.1695C159.281 98.19 159.286 98.2105 159.286 98.2361V99.0095C159.598 98.6612 159.905 98.4051 160.208 98.2515C160.51 98.0927 160.807 98.0159 161.104 98.0159C161.462 98.0159 161.765 98.0773 162.005 98.1951C162.246 98.3129 162.446 98.4768 162.6 98.6817C162.753 98.8866 162.861 99.1273 162.922 99.3988C162.989 99.6702 163.02 100.003 163.02 100.387V103.686H163.03Z" fill="white" stroke="white" stroke-width="0.512186" stroke-miterlimit="10"/>
<path d="M171.881 103.686C171.881 103.716 171.881 103.737 171.866 103.757C171.85 103.778 171.835 103.793 171.809 103.803C171.784 103.814 171.748 103.824 171.712 103.829C171.671 103.834 171.62 103.839 171.563 103.839C171.497 103.839 171.446 103.839 171.405 103.829C171.364 103.824 171.328 103.814 171.302 103.803C171.277 103.793 171.256 103.778 171.241 103.757C171.225 103.737 171.22 103.711 171.22 103.686V102.902C170.933 103.214 170.631 103.46 170.324 103.64C170.017 103.819 169.679 103.906 169.31 103.906C168.915 103.906 168.583 103.829 168.306 103.675C168.029 103.522 167.804 103.317 167.63 103.056C167.456 102.794 167.328 102.487 167.246 102.139C167.164 101.791 167.128 101.417 167.128 101.022C167.128 100.561 167.179 100.141 167.276 99.7725C167.374 99.4037 167.527 99.0862 167.722 98.825C167.917 98.5637 168.163 98.364 168.449 98.2206C168.736 98.0823 169.074 98.0106 169.453 98.0106C169.781 98.0106 170.083 98.0823 170.355 98.2308C170.626 98.3794 170.898 98.5945 171.164 98.8762V95.5931C171.164 95.5931 171.164 95.547 171.179 95.5265C171.195 95.506 171.21 95.4906 171.236 95.4804C171.266 95.4701 171.302 95.4599 171.348 95.4497C171.394 95.4394 171.451 95.4394 171.522 95.4394C171.594 95.4394 171.656 95.4394 171.702 95.4497C171.748 95.4599 171.784 95.4701 171.809 95.4804C171.835 95.4906 171.855 95.506 171.866 95.5265C171.876 95.547 171.886 95.5675 171.886 95.5931V103.68L171.881 103.686ZM171.164 99.752C170.862 99.3884 170.575 99.1067 170.293 98.9172C170.017 98.7225 169.72 98.6303 169.417 98.6303C169.141 98.6303 168.905 98.6969 168.705 98.8301C168.511 98.9633 168.347 99.1374 168.224 99.3525C168.101 99.5676 168.009 99.8135 167.953 100.085C167.896 100.356 167.871 100.633 167.871 100.915C167.871 101.217 167.896 101.509 167.942 101.796C167.988 102.082 168.07 102.333 168.188 102.559C168.306 102.784 168.46 102.958 168.654 103.097C168.849 103.23 169.09 103.296 169.376 103.296C169.52 103.296 169.663 103.276 169.796 103.235C169.93 103.194 170.073 103.127 170.216 103.035C170.36 102.943 170.508 102.825 170.667 102.677C170.826 102.528 170.99 102.349 171.164 102.134V99.752Z" fill="white" stroke="white" stroke-width="0.512186" stroke-miterlimit="10"/>
<path d="M185.654 103.471C185.654 103.527 185.654 103.573 185.644 103.614C185.634 103.655 185.623 103.691 185.608 103.722C185.593 103.752 185.572 103.773 185.547 103.788C185.521 103.804 185.495 103.809 185.465 103.809H182.084C182.012 103.809 181.936 103.783 181.859 103.727C181.782 103.67 181.746 103.573 181.746 103.43V96.1362C181.746 96.1362 181.751 96.0901 181.767 96.0696C181.777 96.0491 181.797 96.0337 181.828 96.0235C181.859 96.0132 181.895 96.003 181.941 95.9928C181.987 95.9825 182.048 95.9825 182.115 95.9825C182.187 95.9825 182.248 95.9825 182.294 95.9928C182.34 96.003 182.376 96.0132 182.407 96.0235C182.432 96.0337 182.453 96.0491 182.468 96.0696C182.479 96.0901 182.489 96.1106 182.489 96.1362V103.143H185.47C185.5 103.143 185.531 103.148 185.552 103.163C185.572 103.179 185.598 103.199 185.613 103.225C185.628 103.25 185.639 103.286 185.649 103.327C185.659 103.368 185.659 103.419 185.659 103.476L185.654 103.471Z" fill="white" stroke="white" stroke-width="0.512186" stroke-miterlimit="10"/>
<path d="M190.074 96.3973C190.074 96.5919 190.038 96.72 189.972 96.7866C189.905 96.8532 189.777 96.889 189.598 96.889C189.418 96.889 189.301 96.8532 189.234 96.7917C189.167 96.7302 189.137 96.5971 189.137 96.4024C189.137 96.2078 189.173 96.0798 189.239 96.0132C189.306 95.9466 189.434 95.9107 189.613 95.9107C189.792 95.9107 189.91 95.9466 189.977 96.0081C190.043 96.0746 190.074 96.2027 190.074 96.3973ZM189.966 103.686C189.966 103.686 189.961 103.732 189.946 103.752C189.936 103.773 189.915 103.788 189.89 103.798C189.864 103.809 189.828 103.819 189.782 103.829C189.736 103.839 189.675 103.839 189.603 103.839C189.531 103.839 189.475 103.839 189.429 103.829C189.383 103.819 189.347 103.809 189.316 103.798C189.29 103.788 189.27 103.773 189.26 103.752C189.249 103.732 189.244 103.711 189.244 103.686V98.2361C189.244 98.2361 189.244 98.19 189.26 98.1695C189.275 98.149 189.29 98.1336 189.316 98.1183C189.342 98.1029 189.383 98.0926 189.429 98.0875C189.475 98.0824 189.531 98.0773 189.603 98.0773C189.675 98.0773 189.736 98.0773 189.782 98.0875C189.828 98.0978 189.864 98.1029 189.89 98.1183C189.915 98.1336 189.936 98.149 189.946 98.1695C189.956 98.19 189.966 98.2105 189.966 98.2361V103.686Z" fill="white" stroke="white" stroke-width="0.512186" stroke-miterlimit="10"/>
<path d="M202.207 103.686C202.207 103.686 202.202 103.732 202.187 103.752C202.171 103.773 202.156 103.788 202.13 103.798C202.105 103.809 202.069 103.819 202.023 103.829C201.977 103.839 201.92 103.839 201.849 103.839C201.777 103.839 201.715 103.839 201.669 103.829C201.623 103.819 201.587 103.809 201.557 103.798C201.526 103.788 201.511 103.773 201.5 103.752C201.49 103.732 201.485 103.711 201.485 103.686V100.331C201.485 100.075 201.464 99.8392 201.413 99.6293C201.362 99.4193 201.295 99.24 201.198 99.0863C201.101 98.9378 200.978 98.82 200.824 98.7381C200.676 98.6561 200.496 98.6151 200.292 98.6151C200.041 98.6151 199.784 98.7124 199.523 98.9122C199.262 99.1068 198.98 99.3988 198.673 99.7778V103.686C198.673 103.686 198.668 103.732 198.653 103.752C198.642 103.773 198.622 103.788 198.596 103.798C198.571 103.809 198.535 103.819 198.489 103.829C198.443 103.839 198.386 103.839 198.314 103.839C198.243 103.839 198.186 103.839 198.14 103.829C198.094 103.819 198.058 103.809 198.028 103.798C198.002 103.788 197.982 103.773 197.971 103.752C197.961 103.732 197.956 103.711 197.956 103.686V100.331C197.956 100.075 197.93 99.8392 197.884 99.6293C197.838 99.4193 197.761 99.24 197.664 99.0863C197.567 98.9378 197.439 98.82 197.29 98.7381C197.142 98.6561 196.962 98.6151 196.757 98.6151C196.506 98.6151 196.25 98.7124 195.989 98.9122C195.728 99.1068 195.446 99.3988 195.144 99.7778V103.686C195.144 103.686 195.139 103.732 195.124 103.752C195.113 103.773 195.093 103.788 195.067 103.798C195.042 103.809 195.006 103.819 194.96 103.829C194.914 103.839 194.852 103.839 194.78 103.839C194.709 103.839 194.652 103.839 194.606 103.829C194.56 103.819 194.524 103.809 194.494 103.798C194.468 103.788 194.447 103.773 194.437 103.752C194.427 103.732 194.422 103.711 194.422 103.686V98.2361C194.422 98.2361 194.422 98.19 194.437 98.1695C194.453 98.149 194.468 98.1337 194.494 98.1183C194.519 98.1029 194.555 98.0927 194.601 98.0876C194.647 98.0824 194.698 98.0773 194.765 98.0773C194.832 98.0773 194.888 98.0773 194.934 98.0876C194.98 98.0978 195.011 98.1029 195.037 98.1183C195.062 98.1337 195.077 98.149 195.088 98.1695C195.098 98.19 195.103 98.2105 195.103 98.2361V99.0095C195.416 98.6612 195.713 98.4051 195.994 98.2515C196.276 98.0927 196.553 98.0159 196.829 98.0159C197.06 98.0159 197.259 98.0415 197.439 98.0978C197.618 98.1542 197.777 98.2259 197.91 98.3283C198.048 98.4256 198.161 98.5434 198.258 98.6817C198.355 98.82 198.432 98.9685 198.494 99.1324C198.683 98.9224 198.863 98.7483 199.026 98.6049C199.195 98.4615 199.349 98.3488 199.503 98.2617C199.656 98.1746 199.8 98.1132 199.938 98.0773C200.076 98.0415 200.22 98.021 200.353 98.021C200.696 98.021 200.983 98.0824 201.219 98.2002C201.454 98.3181 201.644 98.482 201.787 98.6868C201.931 98.8917 202.033 99.1324 202.094 99.4039C202.156 99.6753 202.187 99.9673 202.187 100.269V103.691L202.207 103.686Z" fill="white" stroke="white" stroke-width="0.512186" stroke-miterlimit="10"/>
<path d="M207.488 96.3973C207.488 96.5919 207.452 96.72 207.386 96.7866C207.319 96.8532 207.191 96.889 207.012 96.889C206.832 96.889 206.715 96.8532 206.648 96.7917C206.582 96.7302 206.551 96.5971 206.551 96.4024C206.551 96.2078 206.587 96.0798 206.653 96.0132C206.72 95.9466 206.848 95.9107 207.027 95.9107C207.206 95.9107 207.324 95.9466 207.391 96.0081C207.457 96.0746 207.488 96.2027 207.488 96.3973ZM207.381 103.686C207.381 103.686 207.375 103.732 207.36 103.752C207.35 103.773 207.329 103.788 207.304 103.798C207.278 103.809 207.242 103.819 207.196 103.829C207.15 103.839 207.089 103.839 207.017 103.839C206.945 103.839 206.889 103.839 206.843 103.829C206.797 103.819 206.761 103.809 206.73 103.798C206.704 103.788 206.684 103.773 206.674 103.752C206.663 103.732 206.658 103.711 206.658 103.686V98.2361C206.658 98.2361 206.658 98.19 206.674 98.1695C206.689 98.149 206.704 98.1336 206.73 98.1183C206.756 98.1029 206.797 98.0926 206.843 98.0875C206.889 98.0824 206.945 98.0773 207.017 98.0773C207.089 98.0773 207.15 98.0773 207.196 98.0875C207.242 98.0978 207.278 98.1029 207.304 98.1183C207.329 98.1336 207.35 98.149 207.36 98.1695C207.37 98.19 207.381 98.2105 207.381 98.2361V103.686Z" fill="white" stroke="white" stroke-width="0.512186" stroke-miterlimit="10"/>
<path d="M214.479 103.363C214.479 103.445 214.474 103.517 214.458 103.568C214.443 103.619 214.422 103.66 214.392 103.691C214.361 103.721 214.32 103.747 214.259 103.778C214.202 103.803 214.131 103.824 214.059 103.844C213.982 103.865 213.9 103.875 213.818 103.885C213.736 103.896 213.649 103.901 213.572 103.901C213.301 103.901 213.075 103.865 212.886 103.793C212.696 103.721 212.543 103.614 212.42 103.465C212.297 103.317 212.21 103.132 212.159 102.907C212.107 102.682 212.077 102.415 212.077 102.113V98.7225H211.262C211.206 98.7225 211.16 98.6969 211.129 98.6457C211.098 98.5944 211.083 98.5176 211.083 98.4203C211.083 98.3691 211.083 98.323 211.093 98.2871C211.104 98.2513 211.114 98.2154 211.129 98.1898C211.144 98.1642 211.165 98.1437 211.185 98.1335C211.206 98.1232 211.232 98.113 211.262 98.113H212.077V96.7762C212.077 96.7762 212.077 96.7301 212.092 96.7096C212.107 96.6891 212.123 96.6738 212.148 96.6584C212.174 96.643 212.215 96.6328 212.261 96.6276C212.307 96.6225 212.363 96.6174 212.435 96.6174C212.507 96.6174 212.568 96.6174 212.614 96.6276C212.661 96.6328 212.696 96.643 212.722 96.6584C212.748 96.6738 212.768 96.6891 212.778 96.7096C212.789 96.7301 212.799 96.7506 212.799 96.7762V98.113H214.305C214.33 98.113 214.356 98.1181 214.381 98.1335C214.402 98.1437 214.422 98.1642 214.438 98.1898C214.453 98.2154 214.469 98.2462 214.474 98.2871C214.484 98.323 214.484 98.3691 214.484 98.4203C214.484 98.5227 214.469 98.5944 214.433 98.6457C214.397 98.6969 214.356 98.7225 214.305 98.7225H212.799V102.016C212.799 102.431 212.86 102.743 212.978 102.963C213.096 103.179 213.311 103.286 213.623 103.286C213.721 103.286 213.808 103.276 213.885 103.255C213.961 103.235 214.033 103.214 214.095 103.189C214.156 103.163 214.207 103.143 214.248 103.122C214.289 103.102 214.325 103.091 214.361 103.091C214.381 103.091 214.397 103.091 214.417 103.102C214.433 103.112 214.448 103.122 214.458 103.148C214.469 103.168 214.479 103.199 214.484 103.235C214.489 103.271 214.494 103.312 214.494 103.363H214.479Z" fill="white" stroke="white" stroke-width="0.512186" stroke-miterlimit="10"/>
<path d="M221.578 102.236C221.578 102.497 221.532 102.733 221.435 102.938C221.337 103.143 221.199 103.322 221.02 103.466C220.841 103.609 220.625 103.722 220.38 103.798C220.129 103.875 219.857 103.911 219.555 103.911C219.365 103.911 219.186 103.896 219.017 103.865C218.848 103.834 218.694 103.798 218.561 103.752C218.423 103.706 218.31 103.655 218.213 103.604C218.116 103.553 218.049 103.506 218.003 103.466C217.957 103.425 217.926 103.373 217.906 103.317C217.885 103.261 217.875 103.179 217.875 103.076C217.875 103.025 217.875 102.979 217.885 102.938C217.895 102.897 217.906 102.866 217.916 102.836C217.926 102.805 217.942 102.784 217.962 102.774C217.983 102.759 218.003 102.754 218.029 102.754C218.075 102.754 218.136 102.784 218.223 102.841C218.31 102.897 218.413 102.958 218.541 103.025C218.669 103.092 218.817 103.153 218.992 103.209C219.166 103.266 219.371 103.291 219.596 103.291C219.78 103.291 219.949 103.271 220.103 103.23C220.257 103.189 220.39 103.127 220.503 103.051C220.615 102.969 220.702 102.866 220.764 102.738C220.825 102.61 220.856 102.467 220.856 102.298C220.856 102.129 220.815 101.985 220.738 101.867C220.656 101.75 220.554 101.647 220.421 101.565C220.287 101.478 220.139 101.401 219.975 101.335C219.811 101.268 219.637 101.202 219.463 101.13C219.289 101.058 219.12 100.981 218.951 100.899C218.782 100.818 218.633 100.715 218.505 100.592C218.377 100.469 218.269 100.326 218.187 100.157C218.105 99.9878 218.065 99.7829 218.065 99.5473C218.065 99.3578 218.1 99.1734 218.172 98.989C218.244 98.8046 218.356 98.6407 218.505 98.4973C218.654 98.3539 218.848 98.2361 219.084 98.149C219.319 98.062 219.596 98.0159 219.919 98.0159C220.057 98.0159 220.19 98.0261 220.323 98.0517C220.456 98.0722 220.579 98.1029 220.692 98.1388C220.805 98.1746 220.897 98.2156 220.979 98.2566C221.061 98.2976 221.122 98.3334 221.163 98.3693C221.204 98.4 221.235 98.4307 221.245 98.4512C221.261 98.4717 221.271 98.4973 221.276 98.5229C221.281 98.5485 221.286 98.5742 221.291 98.61C221.296 98.6459 221.296 98.6868 221.296 98.7329C221.296 98.779 221.296 98.8251 221.286 98.861C221.281 98.8968 221.271 98.9327 221.261 98.9583C221.25 98.9839 221.235 99.0095 221.214 99.0197C221.194 99.0351 221.173 99.0402 221.153 99.0402C221.122 99.0402 221.071 99.0198 221.01 98.9737C220.943 98.9276 220.861 98.8815 220.759 98.8302C220.656 98.779 220.528 98.7278 220.385 98.6868C220.241 98.6459 220.072 98.6202 219.883 98.6202C219.693 98.6202 219.529 98.6407 219.386 98.6868C219.243 98.7329 219.125 98.7944 219.033 98.8712C218.94 98.948 218.869 99.0454 218.823 99.1529C218.776 99.2605 218.751 99.3783 218.751 99.5063C218.751 99.6856 218.792 99.8341 218.874 99.9519C218.956 100.07 219.058 100.177 219.191 100.264C219.324 100.351 219.473 100.433 219.642 100.5C219.811 100.567 219.98 100.638 220.159 100.705C220.334 100.771 220.508 100.848 220.677 100.93C220.846 101.012 220.994 101.109 221.127 101.227C221.261 101.345 221.368 101.483 221.445 101.647C221.527 101.811 221.568 102.006 221.568 102.236H221.578Z" fill="white" stroke="white" stroke-width="0.512186" stroke-miterlimit="10"/>
<path d="M75.8569 100.787H55.9277V100.976H75.8569V100.787Z" fill="white"/>
<path d="M253.073 100.31H233.144V100.5H253.073V100.31Z" fill="white"/>
</svg>
